EMG
version=1
nRows=13
nColumns=17
inDegrees=no
endheader
time	_right_gast_med	_right_glut_max	_left_gast_med	_left_glut_max	_right_glut_med	_right_bic_fem	_right_rect_fem	_right_vast_lat	_right_vast_med	_right_tens_fasc_lat	_left_glut_med	_left_bic_fem	_left_rect_fem	_left_vast_lat	_left_vast_med	_left_tens_fasc_lat
      0.59000000	     -0.26158753	     -0.02045293	     -0.00042227	      0.03962756	      0.03312157	      0.00806036	     -0.00178836	      0.00635622	      0.04938157	      0.01506526	      0.00989586	      0.00469870	      0.00118713	      0.04432451	      0.25817040	     -0.01955084
      0.60000000	     -0.72726470	     -0.02051070	      0.00540343	      0.02869966	      0.02325836	      0.00795229	     -0.01022839	      0.00869445	      0.04413620	      0.01164121	      0.01496366	      0.00499217	     -0.00308068	      0.02819284	      0.22144067	     -0.01585081
      0.61000000	     -0.77390587	     -0.01185799	      0.00660168	      0.02141409	      0.01046884	      0.02281760	     -0.01873438	      0.00939388	      0.05449628	      0.01649450	      0.01069563	      0.00327414	      0.01273060	      0.04273040	      0.16679272	     -0.02188814
      0.62000000	     -0.32275394	     -0.00719468	      0.00963334	      0.03120063	      0.00076641	      0.02370115	     -0.00144556	      0.01078654	      0.06308114	      0.00953832	      0.00158843	      0.02606877	      0.00786657	      0.06644844	      0.15119979	     -0.02241840
      0.63000000	     -0.09316783	     -0.01213395	      0.00276463	      0.04774974	     -0.00000636	      0.00835202	      0.01605573	      0.00029466	      0.06296016	      0.00129112	     -0.01031404	      0.02690957	      0.00537208	      0.05834410	      0.10357039	      0.00219350
      0.64000000	      0.16145708	     -0.02335647	     -0.02273141	      0.06370076	      0.00268199	      0.00240161	      0.01107471	     -0.00714137	      0.05152649	      0.00712920	     -0.00240328	     -0.03431290	     -0.01792628	      0.01335870	     -0.00021479	      0.03933366
      0.65000000	      0.29008335	     -0.03439971	     -0.01727241	      0.00571566	      0.01249787	      0.00317407	      0.00709397	     -0.01032130	      0.03974771	      0.00313066	      0.04530963	     -0.06032586	     -0.00859243	     -0.01671623	     -0.06143375	      0.03729469
      0.66000000	     -0.87382877	     -0.02933703	      0.02329657	     -0.04250081	      0.02593040	      0.01185956	      0.01151243	     -0.01348809	      0.05280379	     -0.00031027	      0.05217807	     -0.02425612	      0.03398336	     -0.04190382	     -0.02477529	      0.02988202
      0.67000000	     -1.07451701	     -0.00102545	      0.03835834	     -0.02062066	      0.02917316	      0.01316735	      0.01507648	     -0.00584382	      0.06707683	     -0.00174498	      0.02489802	      0.00404643	      0.03588488	     -0.04539455	      0.01951915	      0.01329556
      0.68000000	      0.74530327	      0.03739606	      0.02226890	     -0.00387546	      0.02649516	     -0.00052206	      0.01356278	      0.00819633	      0.05702969	     -0.01024367	      0.03382651	      0.00392113	      0.01324941	     -0.03515468	      0.02649685	      0.00004665
      0.69000000	      1.00728083	      0.06164887	      0.01151158	     -0.01138481	      0.02478935	     -0.00788382	      0.01154137	      0.02270966	      0.04421261	     -0.01107621	      0.05264683	      0.00231376	      0.02032942	     -0.05993329	     -0.02662439	      0.00607678
      0.70000000	      0.42981908	      0.03883044	      0.02440618	     -0.00975904	      0.01686100	     -0.00919245	      0.00309510	      0.01565539	      0.03601606	      0.00283709	      0.04224380	      0.01517682	      0.00722674	     -0.04649834	     -0.05482469	      0.00192576
      0.71000000	      0.18335104	     -0.04144494	      0.03405303	     -0.00104691	      0.00430950	     -0.01257025	     -0.01082198	      0.00971162	      0.03440256	      0.01972705	      0.01403679	      0.01538165	     -0.02483897	      0.01970592	      0.01371813	     -0.02115063
